<?xml version="1.0" encoding="utf-8"?>
<svg width="725px" height="235px" viewbox="0 0 725 235" version="1.1" xmlns:xlink="http://www.w3.org/1999/xlink" xmlns="http://www.w3.org/2000/svg">
  <defs>
    <rect width="725" height="235" id="artboard_1" />
    <clipPath id="clip_1">
      <use xlink:href="#artboard_1" clip-rule="evenodd" />
    </clipPath>
  </defs>
  <g id="active_entry_logo" clip-path="url(#clip_1)">
    <path d="M44.999 0L680.001 0Q681.106 0 682.209 0.0542033Q683.312 0.108407 684.412 0.216682Q685.511 0.324958 686.604 0.487046Q687.696 0.649134 688.78 0.864643Q689.863 1.08015 690.935 1.34856Q692.006 1.61697 693.063 1.93764Q694.121 2.25831 695.161 2.63046Q696.201 3.00261 697.221 3.42534Q698.242 3.84808 699.24 4.32039Q700.239 4.79269 701.213 5.31342Q702.188 5.83416 703.135 6.40207Q704.082 6.96998 705.001 7.5837Q705.919 8.19742 706.807 8.85546Q707.694 9.51351 708.548 10.2143Q709.402 10.9151 710.22 11.6569Q711.039 12.3988 711.82 13.1799Q712.601 13.961 713.343 14.7795Q714.085 15.598 714.786 16.4519Q715.486 17.3059 716.144 18.1931Q716.802 19.0804 717.416 19.9989Q718.03 20.9174 718.598 21.8649Q719.166 22.8124 719.687 23.7866Q720.207 24.7608 720.68 25.7594Q721.152 26.7581 721.575 27.7786Q721.997 28.7992 722.37 29.8393Q722.742 30.8794 723.062 31.9365Q723.383 32.9936 723.651 34.0651Q723.92 35.1367 724.135 36.2201Q724.351 37.3036 724.513 38.3963Q724.675 39.489 724.783 40.5883Q724.892 41.6877 724.946 42.791Q725 43.8943 725 44.999L725 190.001Q725 191.106 724.946 192.209Q724.892 193.312 724.783 194.412Q724.675 195.511 724.513 196.604Q724.351 197.696 724.135 198.78Q723.92 199.863 723.651 200.935Q723.383 202.006 723.062 203.064Q722.742 204.121 722.37 205.161Q721.997 206.201 721.575 207.221Q721.152 208.242 720.68 209.241Q720.207 210.239 719.687 211.213Q719.166 212.188 718.598 213.135Q718.03 214.083 717.416 215.001Q716.803 215.92 716.144 216.807Q715.486 217.694 714.786 218.548Q714.085 219.402 713.343 220.22Q712.601 221.039 711.82 221.82Q711.039 222.601 710.22 223.343Q709.402 224.085 708.548 224.786Q707.694 225.486 706.807 226.145Q705.919 226.803 705.001 227.416Q704.082 228.03 703.135 228.598Q702.188 229.166 701.213 229.687Q700.239 230.207 699.24 230.68Q698.242 231.152 697.221 231.575Q696.201 231.997 695.161 232.37Q694.121 232.742 693.063 233.062Q692.006 233.383 690.935 233.651Q689.863 233.92 688.78 234.135Q687.696 234.351 686.604 234.513Q685.511 234.675 684.412 234.783Q683.312 234.892 682.209 234.946Q681.106 235 680.001 235L44.999 235Q43.8943 235 42.791 234.946Q41.6877 234.892 40.5883 234.783Q39.489 234.675 38.3963 234.513Q37.3036 234.351 36.2201 234.135Q35.1367 233.92 34.0651 233.651Q32.9936 233.383 31.9365 233.062Q30.8794 232.742 29.8393 232.37Q28.7992 231.997 27.7786 231.575Q26.7581 231.152 25.7594 230.68Q24.7608 230.207 23.7866 229.687Q22.8124 229.166 21.8649 228.598Q20.9174 228.03 19.9989 227.416Q19.0804 226.803 18.1931 226.145Q17.3059 225.486 16.4519 224.786Q15.598 224.085 14.7795 223.343Q13.961 222.601 13.1799 221.82Q12.3988 221.039 11.6569 220.22Q10.9151 219.402 10.2143 218.548Q9.51351 217.694 8.85546 216.807Q8.19742 215.92 7.5837 215.001Q6.96998 214.083 6.40207 213.135Q5.83416 212.188 5.31342 211.213Q4.79269 210.239 4.32039 209.241Q3.84808 208.242 3.42534 207.221Q3.00261 206.201 2.63046 205.161Q2.25831 204.121 1.93764 203.064Q1.61697 202.006 1.34856 200.935Q1.08015 199.863 0.864643 198.78Q0.649134 197.696 0.487046 196.604Q0.324958 195.511 0.216682 194.412Q0.108407 193.312 0.0542033 192.209Q0 191.106 0 190.001L0 44.999Q0 43.8943 0.0542033 42.791Q0.108407 41.6877 0.216682 40.5883Q0.324958 39.489 0.487046 38.3963Q0.649134 37.3036 0.864643 36.2201Q1.08015 35.1367 1.34856 34.0651Q1.61697 32.9936 1.93764 31.9365Q2.25831 30.8794 2.63046 29.8393Q3.00261 28.7992 3.42534 27.7786Q3.84808 26.7581 4.32039 25.7594Q4.79269 24.7608 5.31342 23.7866Q5.83416 22.8124 6.40207 21.8649Q6.96998 20.9174 7.5837 19.9989Q8.19742 19.0804 8.85546 18.1931Q9.51351 17.3059 10.2143 16.4519Q10.9151 15.598 11.6569 14.7795Q12.3988 13.961 13.1799 13.1799Q13.961 12.3988 14.7795 11.6569Q15.598 10.9151 16.4519 10.2143Q17.3059 9.51351 18.1931 8.85546Q19.0804 8.19742 19.9989 7.5837Q20.9174 6.96998 21.8649 6.40207Q22.8124 5.83416 23.7866 5.31342Q24.7608 4.79269 25.7594 4.32039Q26.7581 3.84808 27.7786 3.42534Q28.7992 3.00261 29.8393 2.63046Q30.8794 2.25831 31.9365 1.93764Q32.9936 1.61697 34.0651 1.34856Q35.1367 1.08015 36.2201 0.864643Q37.3036 0.649134 38.3963 0.487046Q39.489 0.324958 40.5883 0.216682Q41.6877 0.108407 42.791 0.0542033Q43.8943 0 44.999 0Z" transform="translate(0.00012207031 0)" id="Rectangle" fill="#000000" fill-rule="evenodd" stroke="none" />
    <g id="active_entry_logo-2" transform="translate(41.657898 43.505188)">
      <path d="M60.1589 147.87L59.3639 148.39L56.4896 148.39L55.7252 147.87C-17.8122 98.0906 2.52148 40.8813 2.73554 40.3004L3.46935 38.3128L5.57917 38.3128C16.709 38.3128 26.8606 31.0355 26.8606 23.0243L26.8606 19.9666L29.9183 19.9666C38.8163 19.9666 51.4752 7.4912 55.603 2.6906L57.9268 0L60.2507 2.6906C64.3785 7.4912 77.068 19.9666 85.9658 19.9666L89.0235 19.9666L89.0235 23.0243C89.0235 31.0355 99.1445 38.3128 110.275 38.3128L112.384 38.3128L113.149 40.3004C113.363 40.8813 133.696 98.0906 60.1589 147.87L60.1589 147.87Z" id="Shape" fill="#FFFFFF" fill-rule="evenodd" stroke="none" />
      <g fill="#FFFFFF" stroke="none" id="ActiveEntry" transform="translate(146.3421 9.494812)">
        <path d="M152.203 33.7813Q152.203 30.7344 154.242 28.7656Q156.281 26.7969 159.797 26.7969Q163.266 26.7969 165.328 28.7656Q167.391 30.7344 167.391 33.7813Q167.391 36.875 165.305 38.8438Q163.219 40.8125 159.797 40.8125Q156.375 40.8125 154.289 38.8438Q152.203 36.875 152.203 33.7813ZM44.625 83.5625L19.9688 83.5625L15.2813 97.625L0.328125 97.625L25.7344 29.375L38.7656 29.375L64.3125 97.625L49.3594 97.625L44.625 83.5625ZM293.109 68.0469L320.109 68.0469L320.109 57.0313L293.109 57.0313L293.109 40.7656L324.703 40.7656L324.703 29.375L279.047 29.375L279.047 97.625L324.797 97.625L324.797 86.3281L293.109 86.3281L293.109 68.0469ZM136.078 46.9063L136.078 34.4375L122.531 34.4375L122.531 46.9063L115.125 46.9063L115.125 56.8438L122.531 56.8438L122.531 84.1719Q122.813 98.5625 137.063 98.5625Q141.281 98.5625 145.266 97.3438L145.266 87.0781Q143.531 87.4063 141.281 87.4063Q138.234 87.4063 137.156 86.1875Q136.078 84.9688 136.078 82.1563L136.078 56.8438L144.75 56.8438L144.75 46.9063L136.078 46.9063ZM402.141 46.9063L402.141 34.4375L388.594 34.4375L388.594 46.9063L381.188 46.9063L381.188 56.8438L388.594 56.8438L388.594 84.1719Q388.875 98.5625 403.125 98.5625Q407.344 98.5625 411.328 97.3438L411.328 87.0781Q409.594 87.4063 407.344 87.4063Q404.297 87.4063 403.219 86.1875Q402.141 84.9688 402.141 82.1563L402.141 56.8438L410.813 56.8438L410.813 46.9063L402.141 46.9063ZM90.8906 87.6406Q94.6406 87.6406 96.9844 85.5781Q99.3281 83.5156 99.4219 80.0938L112.125 80.0938Q112.078 85.25 109.313 89.5391Q106.547 93.8281 101.742 96.1953Q96.9375 98.5625 91.125 98.5625Q80.25 98.5625 73.9688 91.6484Q67.6875 84.7344 67.6875 72.5469L67.6875 71.6563Q67.6875 59.9375 73.9219 52.9531Q80.1563 45.9688 91.0313 45.9688Q100.547 45.9688 106.289 51.3828Q112.031 56.7969 112.125 65.7969L99.4219 65.7969Q99.3281 61.8389 96.9844 59.3647Q94.6406 56.8906 90.7969 56.8906Q86.0625 56.8906 83.6484 60.3411Q81.2344 63.7915 81.2344 71.5376L81.2344 72.946Q81.2344 80.7866 83.625 84.2136Q86.0156 87.6406 90.8906 87.6406ZM249.609 98.5625Q238.453 98.5625 231.445 91.7188Q224.438 84.875 224.438 73.4844L224.438 72.1719Q224.438 64.5313 227.391 58.5078Q230.344 52.4844 235.758 49.2266Q241.172 45.9688 248.109 45.9688Q258.516 45.9688 264.492 52.5313Q270.469 59.0938 270.469 71.1406L270.469 76.6719L238.172 76.6719Q238.828 81.6406 242.133 84.6406Q245.438 87.6406 250.5 87.6406Q258.328 87.6406 262.734 81.9688L269.391 89.4219Q266.344 93.7344 261.141 96.1484Q255.938 98.5625 249.609 98.5625ZM344.625 46.9063L345.047 52.7656Q350.484 45.9688 359.625 45.9688Q367.688 45.9688 371.625 50.7031Q375.563 55.4375 375.656 64.8594L375.656 97.625L362.109 97.625L362.109 65.1875Q362.109 60.875 360.234 58.9297Q358.359 56.9844 354 56.9844Q348.281 56.9844 345.422 61.8594L345.422 97.625L331.875 97.625L331.875 46.9063L344.625 46.9063ZM446.859 59.6094Q444.094 59.2344 441.984 59.2344Q434.297 59.2344 431.906 64.4375L431.906 97.625L418.359 97.625L418.359 46.9063L431.156 46.9063L431.531 52.9531Q435.609 45.9688 442.828 45.9688Q445.078 45.9688 447.047 46.5781L446.859 59.6094ZM23.7656 72.1719L40.8281 72.1719L32.25 46.625L23.7656 72.1719ZM153 97.625L153 46.9063L166.594 46.9063L166.594 97.625L153 97.625ZM206.156 46.9063L196.734 81.0781L187.313 46.9063L173.156 46.9063L190.266 97.625L203.203 97.625L220.313 46.9063L206.156 46.9063ZM481.688 46.9063L472.313 78.4531L462.891 46.9063L448.313 46.9063L466.078 97.7656L464.484 101.938Q463.406 104.656 461.508 105.828Q459.609 107 455.766 107L453.703 106.953L453.703 117.219Q456.75 118.109 459.703 118.109Q470.156 118.109 474.703 108.172L475.828 105.5L496.219 46.9063L481.688 46.9063ZM248.063 56.8906Q244.031 56.8906 241.523 59.6215Q239.016 62.3523 238.313 67.4375L257.156 67.4375L257.156 66.3542Q257.063 61.8345 254.719 59.3625Q252.375 56.8906 248.063 56.8906Z" />
      </g>
      <g id="Logo" transform="translate(391.1164 114.49481)">
        <path d="M5.71892 3.47325L0 3.47325L0 0.12677L15.5738 0.12677L15.5738 3.47325L9.85492 3.47325L9.85492 17.8732L5.71892 17.8732L5.71892 3.47325ZM24.2288 3.42254L24.2288 8.11268L32.5008 8.11268L32.5008 11.4085L24.2288 11.4085L24.2288 17.8732L20.0928 17.8732L20.0928 0.12677L33.5986 0.12677L33.5986 3.42254L24.2288 3.42254ZM54.968 17.8732L54.9425 7.22536L49.6831 15.9972L47.8194 15.9972L42.5855 7.45353L42.5855 17.8732L38.7048 17.8732L38.7048 0.12677L42.126 0.12677L48.8151 11.1549L55.402 0.12677L58.7976 0.12677L58.8487 17.8732L54.968 17.8732ZM78.201 12.8789L67.8355 12.8789L65.5633 17.8732L64.1591 17.8732L72.38 0.12677L73.6821 0.12677L81.903 17.8732L80.4988 17.8732L78.201 12.8789ZM77.716 11.7887L73.0183 1.54648L68.3462 11.7887L77.716 11.7887ZM99.6981 9.07606L100.949 9.07606L100.949 15.7183C100.166 16.462 99.2172 17.0282 98.1024 17.4169C96.9875 17.8056 95.8089 18 94.5664 18C92.7962 18 91.2005 17.6113 89.7793 16.8338C88.3581 16.0563 87.2432 14.9831 86.4348 13.6141C85.6263 12.2451 85.222 10.7071 85.222 9C85.222 7.29295 85.6263 5.75494 86.4348 4.38592C87.2432 3.01689 88.3581 1.94367 89.7793 1.1662C91.2005 0.388728 92.8047 0 94.5919 0C95.9025 0 97.1067 0.20704 98.2045 0.621127C99.3023 1.03521 100.243 1.63943 101.026 2.4338L100.209 3.29577C99.4598 2.55211 98.6215 2.01549 97.6939 1.68592C96.7663 1.35634 95.7408 1.19155 94.6174 1.19155C93.0855 1.19155 91.7026 1.52957 90.4686 2.20563C89.2346 2.88169 88.2687 3.81549 87.5709 5.00704C86.873 6.1986 86.5241 7.52957 86.5241 9C86.5241 10.4535 86.8773 11.776 87.5837 12.9676C88.29 14.1592 89.2559 15.0972 90.4814 15.7817C91.7069 16.4662 93.0855 16.8085 94.6174 16.8085C96.6599 16.8085 98.3534 16.2676 99.6981 15.1859L99.6981 9.07606ZM121.042 16.7071L121.042 17.8732L108.71 17.8732L108.71 0.12677L120.659 0.12677L120.659 1.29297L110.013 1.29297L110.013 8.29015L119.536 8.29015L119.536 9.43099L110.013 9.43099L110.013 16.7071L121.042 16.7071ZM142.386 0.12677L142.386 17.8732L141.313 17.8732L129.135 2.45916L129.135 17.8732L127.833 17.8732L127.833 0.12677L128.931 0.12677L141.084 15.5409L141.084 0.12677L142.386 0.12677ZM157.398 18C155.645 18 154.066 17.6113 152.662 16.8338C151.258 16.0563 150.151 14.9831 149.343 13.6141C148.534 12.2451 148.13 10.7071 148.13 9C148.13 7.29295 148.534 5.75494 149.343 4.38592C150.151 3.01689 151.258 1.94367 152.662 1.1662C154.066 0.388728 155.645 0 157.398 0C158.691 0 159.883 0.20704 160.972 0.621127C162.061 1.03521 162.989 1.64788 163.755 2.45915L162.938 3.29577C161.508 1.89295 159.679 1.19155 157.449 1.19155C155.951 1.19155 154.589 1.52957 153.364 2.20563C152.138 2.88169 151.177 3.81549 150.479 5.00704C149.781 6.1986 149.432 7.52957 149.432 9C149.432 10.4704 149.781 11.8014 150.479 12.993C151.177 14.1845 152.138 15.1183 153.364 15.7944C154.589 16.4704 155.951 16.8085 157.449 16.8085C159.662 16.8085 161.491 16.0986 162.938 14.6789L163.755 15.5155C162.989 16.3268 162.057 16.9437 160.959 17.3662C159.862 17.7887 158.674 18 157.398 18ZM175.933 11.7634L175.933 17.8732L174.631 17.8732L174.631 11.7634L167.432 0.12677L168.861 0.12677L175.321 10.5718L181.78 0.12677L183.133 0.12677L175.933 11.7634Z" transform="translate(19.914062 0)" id="TFMAGENCY" fill="#FFFFFF" fill-rule="evenodd" stroke="none" />
        <path d="M5.10618 10.1408C7.92624 10.1408 10.2124 7.87074 10.2124 5.07042C10.2124 2.27011 7.92624 0 5.10618 0C2.28611 0 0 2.27011 0 5.07042C0 7.87074 2.28611 10.1408 5.10618 10.1408Z" transform="translate(0 4.0563354)" id="Symbol" fill="#FFFFFF" fill-rule="evenodd" stroke="none" />
      </g>
    </g>
  </g>
</svg>